# xmcd CD database file
#
# Track frame offsets:
#	150
#	15987
#	31212
#	47977
#	67897
#	85217
#	101470
#	116937
#	132360
#	153314
#	168103
#	188336
#
# Disc length: 2677 seconds
#
# Revision: 48
# Processed by: cddbd v1.5.2PL0 Copyright (c) Steve Scherf et al.
# Submitted via: CDex 1.70
#
DISCID=8b0a730c
DTITLE=Britney Spears - Oops!...I Did It Again
DYEAR=2000
DGENRE=Pop
TTITLE0=Oops!...I Did It Again
TTITLE1=Stronger
TTITLE2=Don't Go Knockin' On My Door
TTITLE3=(I Can't Get No) Satisfaction
TTITLE4=Don't Let Me Be The Last To Know
TTITLE5=What U See (Is What U Get)
TTITLE6=Lucky
TTITLE7=One Kiss From You
TTITLE8=Where Are You Now
TTITLE9=Can't Make You Love Me
TTITLE10=When Your Eyes Say It
TTITLE11=Dear Diary
EXTD=YEAR: 2000
EXTT0=
EXTT1=
EXTT2=
EXTT3=
EXTT4=
EXTT5=
EXTT6=
EXTT7=
EXTT8=
EXTT9=
EXTT10=
EXTT11=
PLAYORDER=
